<svg width="24" height="30" viewBox="0 0 24 30" fill="none" xmlns="http://www.w3.org/2000/svg">
<path fill-rule="evenodd" clip-rule="evenodd" d="M0.25 8.22668L23.8746 8.2267V29.484H0.25V8.22668ZM1.75 9.72668V27.984H22.3746V9.7267L1.75 9.72668Z" fill="#0A0A0A"/>
<path fill-rule="evenodd" clip-rule="evenodd" d="M12.0613 0.249451L12.0898 0.250531C14.4263 0.339261 16.0778 0.989761 17.1492 2.0878C18.2195 3.18471 18.6005 4.61534 18.6342 6.03348L18.6344 6.04237V8.97669H17.1344V6.06039C17.1049 4.87641 16.7911 3.86872 16.0756 3.13534C15.3626 2.40463 14.1414 1.83429 12.0613 1.75056C9.97893 1.83435 8.74143 2.40247 8.02114 3.13297C7.29988 3.86447 6.98828 4.8695 6.98828 6.05127V8.97669H5.48828V6.05127C5.48828 4.61335 5.87125 3.17694 6.95304 2.07981C8.03253 0.985009 9.69855 0.339176 12.0329 0.250531L12.0613 0.249451Z" fill="#0A0A0A"/>
</svg>
